<?xml version="1.0" encoding="UTF-8" standalone="no"?>
<svg
   xmlns:osb="http://www.openswatchbook.org/uri/2009/osb"
   xmlns:dc="http://purl.org/dc/elements/1.1/"
   xmlns:cc="http://creativecommons.org/ns#"
   xmlns:rdf="http://www.w3.org/1999/02/22-rdf-syntax-ns#"
   xmlns:svg="http://www.w3.org/2000/svg"
   xmlns="http://www.w3.org/2000/svg"
   xmlns:xlink="http://www.w3.org/1999/xlink"
   version="1.1"
   id="svg2"
   height="220"
   width="592">
  <defs
     id="defs4">
    <linearGradient
       id="linearGradient3767">
      <stop
         style="stop-color:#ffa900;stop-opacity:1;"
         offset="0"
         id="stop3800" />
      <stop
         style="stop-color:#fd0000;stop-opacity:1;"
         offset="1"
         id="stop3775" />
    </linearGradient>
    <linearGradient
       spreadMethod="repeat"
       gradientUnits="userSpaceOnUse"
       y2="298.258"
       x2="83.651718"
       y1="163.12114"
       x1="195.5511"
       id="linearGradient3798"
       xlink:href="#linearGradient3767" />
  </defs>
  <g
     transform="translate(2.5547456,30)"
     id="layer1">
    <g
       id="text3792"
       style="fill:#000000;fill-opacity:1;stroke:none">
      <path
         id="path4162"
         style="fill:#ffffff"
         d="m 2.4452544,95.298132 c 0,15.909998 11.0999996,26.639998 27.0099996,26.639998 10.73,0 19.98,-5.365 28.12,-12.21 l 0.555,0 1.665,9.99 17.39,0 0,-53.834998 c 0,-25.345 -11.1,-39.22 -33.855,-39.22 -14.43,0 -27.195,5.55 -37.1849996,11.84 l 7.7699996,14.245 c 7.955,-4.81 16.465,-8.88 25.53,-8.88 12.21,0 16.28,8.14 16.465,17.76 -37.185,4.07 -53.4649996,14.245 -53.4649996,33.67 z m 20.7199996,-1.665 c 0,-9.065 8.14,-15.54 32.745,-18.685 l 0,20.35 c -6.66,6.289998 -12.395,9.989998 -19.795,9.989998 -7.585,0 -12.95,-3.515 -12.95,-11.654998 z" />
      <path
         id="path4164"
         style="fill:#ffffff"
         d="m 94.101192,109.35813 c 8.879998,7.215 22.014998,12.58 34.409998,12.58 22.94,0 35.335,-12.58 35.335,-28.119998 0,-17.02 -13.69,-22.94 -26.085,-27.565 -9.805,-3.515 -18.87,-6.29 -18.87,-13.505 0,-5.735 4.255,-9.99 13.32,-9.99 7.215,0 13.69,3.145 19.98,7.77 l 9.805,-12.95 c -7.4,-5.735 -17.575,-10.915 -30.155,-10.915 -20.35,0 -33.114998,11.285 -33.114998,27.195 0,15.17 13.504998,22.015 25.529998,26.455 9.62,3.7 19.425,7.03 19.425,14.615 0,6.289998 -4.625,10.914998 -14.43,10.914998 -9.25,0 -17.02,-3.885 -25.16,-10.174998 l -9.989998,13.689998 z" />
      <path
         id="path4166"
         style="fill:#ffffff"
         d="m 186.16471,89.008132 c 0,19.609998 7.77,32.929998 28.86,32.929998 7.215,0 13.505,-1.665 18.5,-3.33 l -3.7,-15.725 c -2.59,1.11 -6.29,2.035 -9.435,2.035 -8.695,0 -12.765,-5.179998 -12.765,-15.909998 l 0,-43.29 23.125,0 0,-16.835 -23.125,0 0,-24.79 -17.76,0 -2.59,24.79 -14.06,0.925 0,15.91 12.95,0 0,43.29 z" />
      <path
         id="path4168"
         style="fill:#ffffff"
         d="m 249.86541,119.71813 21.275,0 0,-55.499998 c 5.55,-13.69 14.245,-18.685 21.46,-18.685 3.885,0 6.29,0.555 9.435,1.48 l 3.7,-18.5 c -2.775,-1.295 -5.735,-1.85 -10.36,-1.85 -9.62,0 -19.24,6.475 -25.715,18.315 l -0.74,0 -1.48,-16.095 -17.575,0 0,90.834998 z" />
      <path
         id="path4170"
         style="fill:#ffffff"
         d="m 311.15244,74.393132 c 0,30.154998 20.535,47.544998 43.105,47.544998 22.755,0 43.29,-17.39 43.29,-47.544998 0,-30.34 -20.535,-47.73 -43.29,-47.73 -22.57,0 -43.105,17.39 -43.105,47.73 z m 21.83,0 c 0,-18.315 7.955,-30.34 21.275,-30.34 13.32,0 21.46,12.025 21.46,30.34 0,18.13 -8.14,30.154998 -21.46,30.154998 -13.32,0 -21.275,-12.024998 -21.275,-30.154998 z" />
      <path
         id="path4172"
         style="fill:#ff5000;fill-opacity:1"
         d="m 430.26065,111.02313 c 9.25,6.845 18.315,10.915 26.64,10.915 20.905,0 39.22,-17.76 39.22,-47.914998 0,-27.565 -11.84,-45.325 -35.52,-45.325 -10.915,0 -21.46,6.475 -30.155,13.32 l -0.555,0 -0.74,-11.1 -7.03,0 0,128.944998 8.14,0 0,-32.375 0,-16.465 z m 0,-7.77 0,-52.724998 c 10.73,-9.435 20.165,-14.615 29.045,-14.615 20.35,0 28.12,16.28 28.12,38.11 0,24.05 -12.95,40.699998 -30.895,40.699998 -6.845,0 -16.095,-3.145 -26.27,-11.47 z" />
      <path
         id="path4174"
         style="fill:#ff5000;fill-opacity:1"
         d="m 512.20119,151.16813 -1.85,7.215 c 2.405,1.11 5.735,1.85 9.065,1.85 15.91,0 24.79,-14.615 29.785,-29.415 l 35.15,-99.899998 -8.325,0 -19.055,55.87 c -2.405,7.4 -5.365,17.019998 -8.14,24.789998 l -0.74,0 c -3.33,-7.77 -6.845,-17.389998 -9.62,-24.789998 l -21.46,-55.87 -8.88,0 36.445,90.464998 -2.405,7.77 c -4.44,13.505 -11.84,23.495 -22.755,23.495 -2.59,0 -5.365,-0.74 -7.215,-1.48 z" />
    </g>
  </g>
</svg>
